<svg xmlns="http://www.w3.org/2000/svg" viewBox="0 0 1515.92 404.93"><defs><style>.cls-1{fill:#006;}</style></defs><g id="Layer_2" data-name="Layer 2"><g id="Layer_1-2" data-name="Layer 1"><path class="cls-1" d="M55.46,403.77H0V323H55.46v16.32H16.56v15.17H50.48v15.63H16.56v17.37h38.9Z"/><path class="cls-1" d="M145.08,389.76c-8.91,10.54-14.82,15.05-28.94,15.05-24,0-35.2-19.68-35.2-41.45s11-41.45,35.08-41.45c12.74,0,20.49,4.4,28.48,14l-11.69,11.47c-4.75-5.33-9.15-9.15-16.79-9.15-13.89,0-18.18,13.55-18.18,25.12s4.29,25.13,18.18,25.13c7.88,0,12.62-4.17,17.37-10.07Z"/><path class="cls-1" d="M235.05,403.77H218.5V370.08H189.67v33.69H173.11V323h16.56v31.49H218.5V323h16.55Z"/><path class="cls-1" d="M324.09,403.77H268.64V323h55.45v16.32h-38.9v15.17h33.93v15.63H285.19v17.37h38.9Z"/><path class="cls-1" d="M406.08,403.77H355.36V323H371.8v64.83h34.28Z"/><path class="cls-1" d="M463.39,404.7c-24.43,0-33.8-19.8-33.8-41.34S439,322,463.39,322s33.81,19.8,33.81,41.33S487.82,404.7,463.39,404.7Zm0-66.35c-14.58,0-17.13,13.32-17.13,25s2.55,25,17.13,25,17.14-13.31,17.14-25S478.1,338.35,463.39,338.35Z"/><path class="cls-1" d="M586.71,403.77H573.39l-29.52-46.08v46.08H527.31V323h13.43L570.15,369V323h16.56Z"/><path class="cls-1" d="M698.22,369.39a25.89,25.89,0,0,1,3.24,4.28l19.22,30.1H701.46l-16.21-27.09c-2.43-4.17-3.48-5.44-8.45-5.44h-4.06v32.53H656.19V323h29.64c15.74,0,28,7.52,28,24.54A22.82,22.82,0,0,1,698.22,369.39Zm-12.28-30.46h-13.2v17.72h13.2c6.37,0,11.35-1.62,11.35-9S692.08,338.93,685.94,338.93Z"/><path class="cls-1" d="M762.94,403.77H746.39V323h16.55Z"/><path class="cls-1" d="M825.47,404.93c-17.14,0-28.48-8.1-32.65-24.55l15.63-3.12c2.32,8.33,8.34,11.92,17,11.92,6,0,13.78-3.12,13.78-10.19,0-14.58-43.88-4.51-43.88-33.69,0-15.63,14-23.27,27.9-23.27,14.7,0,23.85,5.56,30.22,18.53l-14.24,6.6c-3.71-6.72-7.88-9.73-16-9.73-4.51,0-11.35,2.08-11.35,7.87,0,12.28,43.89,4.17,43.89,33.69C855.81,395.67,840.75,404.93,825.47,404.93Z"/><path class="cls-1" d="M885.34,403.77V323h16.55v80.81Zm36.23-40.87,28.37,40.87H930.49L903.74,362.9l25-39.94h18.18Z"/><path class="cls-1" d="M1044.77,371.19h-18.52v18.53h-14.13V371.19H993.6V357.07h18.52V338.54h14.13v18.53h18.52Z"/><path class="cls-1" d="M1156.39,389.76c-8.91,10.54-14.82,15.05-28.94,15.05-24,0-35.2-19.68-35.2-41.45s11-41.45,35.08-41.45c12.74,0,20.5,4.4,28.49,14l-11.7,11.47c-4.75-5.33-9.15-9.15-16.79-9.15-13.89,0-18.18,13.55-18.18,25.12s4.29,25.13,18.18,25.13c7.88,0,12.62-4.17,17.37-10.07Z"/><path class="cls-1" d="M1247.64,323l-26.75,54.18v26.63h-16.56V376.91l-26.86-54H1196l16.67,35.43L1229.23,323Z"/><path class="cls-1" d="M1305.77,403.77h-31.5V323h29.64c15.52,0,27.91,6.71,27.91,23.85a20.3,20.3,0,0,1-5.79,14.47c5.9,3.94,8.57,10.88,8.57,17.83C1334.6,397.06,1322.09,403.77,1305.77,403.77Zm-1.63-65.07h-13.31v16.91h13.31c6.26,0,11.47-1.16,11.47-8.69C1315.61,339.63,1310.28,338.7,1304.14,338.7Zm1.63,31.5h-14.94v17.94h14.94c6.59,0,12.27-.92,12.27-8.91S1312.36,370.2,1305.77,370.2Z"/><path class="cls-1" d="M1420.17,403.77h-55.46V323h55.46v16.32h-38.91v15.17h33.93v15.63h-33.93v17.37h38.91Z"/><path class="cls-1" d="M1493.46,369.39a25.35,25.35,0,0,1,3.24,4.28l19.22,30.1H1496.7l-16.2-27.09c-2.44-4.17-3.48-5.44-8.46-5.44h-4v32.53h-16.56V323h29.64c15.75,0,28,7.52,28,24.54A22.8,22.8,0,0,1,1493.46,369.39Zm-12.27-30.46H1468v17.72h13.2c6.37,0,11.35-1.62,11.35-9S1487.33,338.93,1481.19,338.93Z"/><polygon class="cls-1" points="1431.9 16.24 1506.6 16.24 1515.92 0 1366.59 0 1347.94 32.49 1422.57 32.49 1431.9 16.24"/><polygon class="cls-1" points="1358.23 144.59 1432.93 144.59 1442.26 128.34 1292.92 128.34 1274.27 160.83 1348.91 160.83 1358.23 144.59"/><polygon class="cls-1" points="1395.06 80.42 1469.77 80.42 1479.09 64.17 1329.75 64.17 1311.11 96.66 1385.74 96.66 1395.06 80.42"/></g></g></svg>