<svg xmlns="http://www.w3.org/2000/svg" viewBox="0 0 1198.89 65.65"><defs><style>.cls-1{fill:#f2f2f2;}</style></defs><g id="Layer_2" data-name="Layer 2"><g id="Layer_1-2" data-name="Layer 1"><path class="cls-1" d="M43.86,64.74H0V.82H43.86V13.74H13.09v12H39.92V38.09H13.09V51.83H43.86Z"/><path class="cls-1" d="M114.74,53.66c-7,8.33-11.72,11.9-22.89,11.9C72.89,65.56,64,50,64,32.78S72.71,0,91.76,0c10.07,0,16.2,3.48,22.52,11.08L105,20.14c-3.76-4.21-7.24-7.23-13.28-7.23-11,0-14.38,10.71-14.38,19.87s3.39,19.87,14.38,19.87c6.22,0,10-3.3,13.73-8Z"/><path class="cls-1" d="M185.89,64.74H172.8V38.09H150V64.74H136.91V.82H150V25.73h22.8V.82h13.09Z"/><path class="cls-1" d="M256.32,64.74H212.46V.82h43.86V13.74H225.55v12h26.83V38.09H225.55V51.83h30.77Z"/><path class="cls-1" d="M321.15,64.74H281V.82h13V52.1h27.1Z"/><path class="cls-1" d="M366.48,65.47c-19.32,0-26.73-15.66-26.73-32.69S347.16.09,366.48.09s26.74,15.66,26.74,32.69S385.8,65.47,366.48,65.47Zm0-52.47C355,13,352.93,23.53,352.93,32.78s2,19.78,13.55,19.78S380,42,380,32.78,378.11,13,366.48,13Z"/><path class="cls-1" d="M464,64.74H453.48L430.13,28.29V64.74H417V.82h10.62l23.26,36.45V.82H464Z"/><path class="cls-1" d="M552.2,37.54a20.85,20.85,0,0,1,2.56,3.39L570,64.74h-15.2L541.94,43.31C540,40,539.19,39,535.25,39h-3.2V64.74H519V.82H542.4c12.45,0,22.16,6,22.16,19.42A18,18,0,0,1,552.2,37.54Zm-9.71-24.08H532.05v14h10.44c5,0,9-1.28,9-7.14S547.34,13.46,542.49,13.46Z"/><path class="cls-1" d="M603.39,64.74h-13.1V.82h13.1Z"/><path class="cls-1" d="M652.84,65.65c-13.56,0-22.53-6.41-25.83-19.41l12.37-2.47c1.83,6.59,6.59,9.43,13.46,9.43,4.76,0,10.89-2.47,10.89-8.06,0-11.53-34.7-3.57-34.7-26.64C629,6.13,640.11.09,651.1.09,662.73.09,670,4.49,675,14.74L663.73,20c-2.93-5.31-6.22-7.69-12.63-7.69-3.57,0-9,1.65-9,6.23,0,9.7,34.71,3.29,34.71,26.64C676.83,58.33,664.92,65.65,652.84,65.65Z"/><path class="cls-1" d="M700.18,64.74V.82h13.1V64.74Zm28.66-32.32,22.44,32.32H735.89L714.74,32.42,734.52.82H748.9Z"/><path class="cls-1" d="M826.28,39H811.62V53.62H800.45V39H785.8V27.8h14.65V13.15h11.17V27.8h14.66Z"/><path class="cls-1" d="M914.55,53.66c-7,8.33-11.72,11.9-22.89,11.9-18.95,0-27.84-15.56-27.84-32.78S872.52,0,891.57,0c10.07,0,16.21,3.48,22.52,11.08l-9.24,9.06c-3.76-4.21-7.24-7.23-13.28-7.23-11,0-14.38,10.71-14.38,19.87s3.39,19.87,14.38,19.87c6.23,0,10-3.3,13.73-8Z"/><path class="cls-1" d="M986.71.82,965.56,43.68V64.74H952.47V43.49L931.22.82h14.65l13.19,28,13.09-28Z"/><path class="cls-1" d="M1032.69,64.74h-24.91V.82h23.44c12.27,0,22.07,5.31,22.07,18.87a16,16,0,0,1-4.58,11.44c4.67,3.12,6.78,8.61,6.78,14.1C1055.49,59.43,1045.6,64.74,1032.69,64.74Zm-1.29-51.46h-10.53V26.65h10.53c4.95,0,9.07-.92,9.07-6.87C1040.47,14,1036.26,13.28,1031.4,13.28Zm1.29,24.9h-11.82v14.2h11.82c5.21,0,9.7-.74,9.7-7.05S1037.9,38.18,1032.69,38.18Z"/><path class="cls-1" d="M1123.16,64.74H1079.3V.82h43.86V13.74h-30.77v12h26.83V38.09h-26.83V51.83h30.77Z"/><path class="cls-1" d="M1181.13,37.54a20.85,20.85,0,0,1,2.56,3.39l15.2,23.81h-15.2l-12.82-21.43c-1.92-3.3-2.74-4.3-6.68-4.3H1161V64.74h-13.09V.82h23.44c12.45,0,22.16,6,22.16,19.42A18,18,0,0,1,1181.13,37.54Zm-9.71-24.08H1161v14h10.44c5,0,9-1.28,9-7.14S1176.28,13.46,1171.42,13.46Z"/></g></g></svg>