<svg xmlns="http://www.w3.org/2000/svg" viewBox="0 0 606.38 648.59"><defs><style>.cls-1{fill:#006;}</style></defs><g id="Layer_2" data-name="Layer 2"><g id="Layer_1-2" data-name="Layer 1"><path class="cls-1" d="M59.16,406H3.49V324.91H59.16V341.3h-39v15.22H54.16v15.69h-34v17.44H59.16Z"/><path class="cls-1" d="M151.45,392c-8.95,10.58-14.88,15.11-29.06,15.11-24.06,0-35.33-19.76-35.33-41.61s11-41.61,35.22-41.61c12.78,0,20.57,4.42,28.59,14.06l-11.74,11.51c-4.76-5.34-9.18-9.18-16.85-9.18-14,0-18.25,13.6-18.25,25.22s4.3,25.22,18.25,25.22c7.9,0,12.67-4.18,17.43-10.11Z"/><path class="cls-1" d="M244.09,406H227.47V372.21H198.53V406H181.9V324.91h16.63v31.61h28.94V324.91h16.62Z"/><path class="cls-1" d="M335.79,406H280.12V324.91h55.67V341.3H296.74v15.22H330.8v15.69H296.74v17.44h39.05Z"/><path class="cls-1" d="M420.41,406H369.5V324.91H386V390h34.4Z"/><path class="cls-1" d="M480.27,407c-24.52,0-33.94-19.88-33.94-41.5S455.75,324,480.27,324s33.94,19.87,33.94,41.49S504.8,407,480.27,407Zm0-66.6c-14.64,0-17.2,13.36-17.2,25.1s2.56,25.11,17.2,25.11,17.21-13.37,17.21-25.11S495,340.37,480.27,340.37Z"/><path class="cls-1" d="M606.38,406H593l-29.64-46.26V406H546.75V324.91h13.49l29.52,46.26V324.91h16.62Z"/><path class="cls-1" d="M45.68,492.27a25.57,25.57,0,0,1,3.25,4.3l19.3,30.22H48.93l-16.27-27.2c-2.44-4.18-3.49-5.46-8.48-5.46H20.11v32.66H3.49V445.66H33.24c15.81,0,28.13,7.55,28.13,24.64A22.9,22.9,0,0,1,45.68,492.27ZM33.36,461.7H20.11v17.78H33.36c6.39,0,11.39-1.63,11.39-9.07S39.52,461.7,33.36,461.7Z"/><path class="cls-1" d="M115.3,526.79H98.68V445.66H115.3Z"/><path class="cls-1" d="M182.72,528c-17.21,0-28.6-8.14-32.78-24.64l15.69-3.14c2.32,8.37,8.37,12,17.09,12,6,0,13.83-3.14,13.83-10.23,0-14.64-44.05-4.53-44.05-33.82,0-15.69,14.06-23.36,28-23.36,14.76,0,23.94,5.58,30.34,18.59L196.55,470c-3.72-6.74-7.91-9.76-16-9.76-4.54,0-11.39,2.09-11.39,7.9,0,12.32,44,4.18,44,33.82C213.17,518.65,198.06,528,182.72,528Z"/><path class="cls-1" d="M247.46,526.79V445.66h16.62v81.13Zm36.38-41,28.47,41H292.79l-26.85-41,25.1-40.1h18.25Z"/><path class="cls-1" d="M421.46,495.13h-18.6v18.6H388.68v-18.6h-18.6V481h18.6V462.36h14.18V481h18.6Z"/><path class="cls-1" d="M64.39,633.47c-9,10.58-14.87,15.12-29.06,15.12C11.27,648.59,0,628.82,0,607s11-41.61,35.22-41.61c12.78,0,20.57,4.42,28.59,14.07l-11.74,11.5c-4.76-5.34-9.18-9.18-16.85-9.18C21.27,581.75,17,595.35,17,607s4.3,25.23,18.25,25.23c7.9,0,12.67-4.19,17.43-10.12Z"/><path class="cls-1" d="M158.31,566.41,131.46,620.8v26.74H114.84v-27l-27-54.16h18.6L123.21,602l16.62-35.57Z"/><path class="cls-1" d="M219,647.54H187.37V566.41h29.75c15.58,0,28,6.74,28,23.94a20.35,20.35,0,0,1-5.81,14.53c5.93,4,8.6,10.93,8.6,17.9C247.92,640.8,235.37,647.54,219,647.54Zm-1.63-65.33H204v17h13.36c6.28,0,11.51-1.17,11.51-8.72C228.86,583.15,223.51,582.21,217.35,582.21ZM219,613.83H204v18h15c6.63,0,12.32-.93,12.32-9S225.61,613.83,219,613.83Z"/><path class="cls-1" d="M336.14,647.54H280.47V566.41h55.67V582.8H297.09V598h34.06v15.69H297.09v17.44h39.05Z"/><path class="cls-1" d="M412,613a25.6,25.6,0,0,1,3.26,4.3l19.29,30.22H415.3L399,620.34c-2.44-4.18-3.48-5.46-8.48-5.46h-4.07v32.66H369.85V566.41h29.76c15.8,0,28.12,7.55,28.12,24.64A22.9,22.9,0,0,1,412,613Zm-12.32-30.57H386.47v17.78h13.25c6.39,0,11.39-1.63,11.39-9.06S405.88,582.45,399.72,582.45Z"/><polygon class="cls-1" points="162.83 16.41 238.28 16.41 247.7 0 96.86 0 78.02 32.81 153.41 32.81 162.83 16.41"/><polygon class="cls-1" points="88.42 146.05 163.88 146.05 173.29 129.64 22.45 129.64 3.61 162.45 79 162.45 88.42 146.05"/><polygon class="cls-1" points="125.62 81.23 201.08 81.23 210.5 64.82 59.65 64.82 40.82 97.64 116.2 97.64 125.62 81.23"/></g></g></svg>